<svg width="31" height="31" viewBox="0 0 31 31" fill="none" xmlns="http://www.w3.org/2000/svg">
<path d="M23.4922 27.1251C22.3905 27.1251 21.3135 26.7984 20.3975 26.1863C19.4815 25.5742 18.7675 24.7043 18.3459 23.6864C17.9243 22.6686 17.814 21.5486 18.0289 20.468C18.2438 19.3875 18.7744 18.395 19.5534 17.6159C20.3324 16.8369 21.3249 16.3064 22.4055 16.0915C23.486 15.8765 24.606 15.9868 25.6239 16.4085C26.6417 16.8301 27.5117 17.544 28.1237 18.46C28.7358 19.3761 29.0625 20.453 29.0625 21.5547C29.0609 23.0316 28.4735 24.4475 27.4292 25.4918C26.3849 26.5361 24.969 27.1235 23.4922 27.1251ZM23.4922 17.9219C22.7737 17.9219 22.0713 18.135 21.4739 18.5342C20.8765 18.9334 20.4109 19.5007 20.1359 20.1645C19.8609 20.8283 19.789 21.5588 19.9292 22.2635C20.0694 22.9682 20.4153 23.6155 20.9234 24.1235C21.4315 24.6316 22.0788 24.9776 22.7835 25.1178C23.4882 25.2579 24.2186 25.186 24.8824 24.911C25.5462 24.6361 26.1136 24.1704 26.5128 23.573C26.9119 22.9756 27.125 22.2733 27.125 21.5547C27.1239 20.5916 26.7408 19.6682 26.0597 18.9872C25.3787 18.3062 24.4553 17.9231 23.4922 17.9219ZM7.50781 27.1251C6.40611 27.1251 5.32915 26.7984 4.41312 26.1863C3.49708 25.5742 2.78312 24.7043 2.36152 23.6864C1.93991 22.6686 1.8296 21.5486 2.04453 20.468C2.25947 19.3875 2.78999 18.395 3.56901 17.6159C4.34803 16.8369 5.34057 16.3064 6.4211 16.0915C7.50164 15.8765 8.62164 15.9868 9.63948 16.4085C10.6573 16.8301 11.5273 17.544 12.1394 18.46C12.7514 19.3761 13.0781 20.453 13.0781 21.5547C13.0765 23.0316 12.4891 24.4475 11.4449 25.4918C10.4006 26.5361 8.98466 27.1235 7.50781 27.1251ZM7.50781 17.9219C6.78931 17.9219 6.08695 18.135 5.48953 18.5342C4.89212 18.9334 4.42649 19.5007 4.15153 20.1645C3.87658 20.8283 3.80463 21.5588 3.94481 22.2635C4.08498 22.9682 4.43097 23.6155 4.93903 24.1235C5.44709 24.6316 6.09439 24.9776 6.79909 25.1178C7.50378 25.2579 8.23422 25.186 8.89803 24.911C9.56184 24.6361 10.1292 24.1704 10.5284 23.573C10.9276 22.9756 11.1406 22.2733 11.1406 21.5547C11.1395 20.5916 10.7564 19.6682 10.0754 18.9872C9.39432 18.3062 8.47095 17.9231 7.50781 17.9219ZM19.375 7.75006C19.6302 7.75095 19.883 7.70124 20.1189 7.6038C20.3548 7.50637 20.569 7.36314 20.7491 7.18241C20.9293 7.00168 21.0719 6.78702 21.1686 6.55086C21.2653 6.31469 21.3142 6.0617 21.3125 5.80651C21.3153 5.55259 21.2675 5.30066 21.1718 5.06545C21.0761 4.83024 20.9345 4.61646 20.7552 4.43662C20.576 4.25679 20.3626 4.1145 20.1277 4.01807C19.8928 3.92165 19.641 3.87303 19.3871 3.87506C19.1327 3.87427 18.8806 3.92359 18.6452 4.02023C18.4098 4.11686 18.1958 4.25891 18.0153 4.43826C17.8348 4.61761 17.6915 4.83075 17.5934 5.06552C17.4953 5.30028 17.4444 5.55207 17.4436 5.80651C17.4428 6.06094 17.4921 6.31304 17.5887 6.54842C17.6854 6.78379 17.8274 6.99782 18.0068 7.1783C18.1861 7.35877 18.3993 7.50216 18.634 7.60026C18.8688 7.69836 19.1206 7.74927 19.375 7.75006Z" fill="white"/>
<path d="M22.254 11.6249H19.6045C19.561 11.6249 19.5183 11.6132 19.4809 11.591C19.4435 11.5689 19.4128 11.5371 19.3919 11.4989L17.4702 7.97692C17.3348 7.71518 17.1396 7.48901 16.9006 7.3167C16.6615 7.14439 16.3852 7.03079 16.0941 6.9851C15.803 6.93941 15.5052 6.96291 15.2249 7.0537C14.9445 7.14449 14.6895 7.30001 14.4804 7.50768L10.2506 11.7702C9.89523 12.1329 9.69353 12.6187 9.6875 13.1264C9.6875 14.1799 10.4504 14.5553 10.8076 14.7673C12.5332 15.7614 13.7484 16.4886 14.415 16.8924C14.4504 16.914 14.4797 16.9443 14.5001 16.9805C14.5204 17.0166 14.5312 17.0574 14.5312 17.0989V21.2839C14.5312 21.8052 14.9321 22.2527 15.4534 22.2787C15.5843 22.285 15.7151 22.2647 15.8379 22.219C15.9607 22.1733 16.0729 22.1032 16.1678 22.0128C16.2628 21.9225 16.3384 21.8138 16.3901 21.6934C16.4418 21.573 16.4686 21.4434 16.4687 21.3124V16.1053C16.4688 15.9516 16.4323 15.8 16.3622 15.6631C16.2921 15.5262 16.1904 15.408 16.0655 15.3182L13.8253 13.7071C13.7971 13.687 13.7737 13.661 13.7564 13.6311C13.7391 13.6011 13.7285 13.5678 13.7251 13.5334C13.7218 13.499 13.7259 13.4643 13.7371 13.4316C13.7483 13.3989 13.7664 13.3689 13.7902 13.3438L16.3331 10.6319C16.3592 10.604 16.3915 10.5827 16.4274 10.5696C16.4633 10.5566 16.5017 10.5522 16.5396 10.5569C16.5775 10.5615 16.6138 10.5751 16.6455 10.5965C16.6771 10.6178 16.7033 10.6463 16.7218 10.6797L18.043 13.0641C18.1269 13.2152 18.2498 13.3411 18.3989 13.4288C18.5479 13.5164 18.7177 13.5625 18.8906 13.5624H22.2812C22.4125 13.5625 22.5424 13.536 22.6631 13.4844C22.7837 13.4329 22.8927 13.3573 22.9833 13.2624C23.0739 13.1674 23.1442 13.055 23.1901 12.9321C23.2359 12.8091 23.2563 12.6781 23.25 12.547C23.2246 12.0257 22.7753 11.6249 22.254 11.6249Z" fill="white"/>
</svg>
