<svg width="61" height="61" viewBox="0 0 61 61" fill="none" xmlns="http://www.w3.org/2000/svg">
<circle cx="30.5" cy="30.5" r="30.5" fill="#E66262"/>
<path d="M34.625 18.125H22.25C21.1087 18.125 20.1325 18.8125 19.72 19.8025L15.5675 29.4963C15.4437 29.8125 15.375 30.1425 15.375 30.5V33.25C15.375 34.7625 16.6125 36 18.125 36H26.8013L25.495 42.2837L25.4537 42.7237C25.4537 43.2875 25.6875 43.81 26.0588 44.1813L27.5162 45.625L36.5775 36.5637C37.0725 36.0688 37.375 35.3813 37.375 34.625V20.875C37.375 19.3625 36.1375 18.125 34.625 18.125ZM34.625 34.625L28.6575 40.5925L30.5 33.25H18.125V30.5L22.25 20.875H34.625V34.625ZM40.125 18.125H45.625V34.625H40.125V18.125Z" fill="white"/>
</svg>
