<svg width="28" height="28" viewBox="0 0 28 28" fill="none" xmlns="http://www.w3.org/2000/svg">
<g clip-path="url(#clip0)">
<path d="M21.665 17.3366L23.3333 15.6683L21.665 13.9999L17.5 18.1649L7.50167 8.16659L11.6667 4.00159L9.99833 2.33325L8.33 4.00159L6.66167 2.33325L4.165 4.82992L2.49667 3.16159L0.828333 4.82992L2.49667 6.49825L0 8.99492L1.66833 10.6633L0 12.3316L1.66833 13.9999L5.83333 9.83492L15.8317 19.8333L11.6667 23.9983L13.335 25.6666L15.0033 23.9983L16.6717 25.6666L19.1683 23.1699L20.8367 24.8383L22.505 23.1699L20.8367 21.5016L23.3333 19.0049L21.665 17.3366Z" fill="white"/>
</g>
<defs>
<clipPath id="clip0">
<rect width="28" height="28" fill="white"/>
</clipPath>
</defs>
</svg>
