<svg width="25" height="22" viewBox="0 0 25 22" fill="none" xmlns="http://www.w3.org/2000/svg">
<path d="M21.89 1.38875C21.615 0.5775 20.845 0 19.9375 0H4.8125C3.905 0 3.14875 0.5775 2.86 1.38875L0 9.625V20.625C0 21.3813 0.61875 22 1.375 22H2.75C3.50625 22 4.125 21.3813 4.125 20.625V19.25H20.625V20.625C20.625 21.3813 21.2437 22 22 22H23.375C24.1313 22 24.75 21.3813 24.75 20.625V9.625L21.89 1.38875ZM5.29375 2.75H19.4425L20.8725 6.875H3.86375L5.29375 2.75ZM22 16.5H2.75V10.0925L2.915 9.625H21.8487L22 10.0925V16.5Z" fill="white"/>
<path d="M6.1875 15.125C7.32659 15.125 8.25 14.2016 8.25 13.0625C8.25 11.9234 7.32659 11 6.1875 11C5.04841 11 4.125 11.9234 4.125 13.0625C4.125 14.2016 5.04841 15.125 6.1875 15.125Z" fill="white"/>
<path d="M18.5625 15.125C19.7016 15.125 20.625 14.2016 20.625 13.0625C20.625 11.9234 19.7016 11 18.5625 11C17.4234 11 16.5 11.9234 16.5 13.0625C16.5 14.2016 17.4234 15.125 18.5625 15.125Z" fill="white"/>
</svg>
