<svg width="59" height="59" viewBox="0 0 59 59" fill="none" xmlns="http://www.w3.org/2000/svg">
<circle cx="29.5" cy="29.5" r="29.5" fill="#5FC169"/>
<path fill-rule="evenodd" clip-rule="evenodd" d="M30.0001 46.5002C29.5124 46.5002 29.0467 46.3077 28.7021 45.9612L14.4626 31.6978C10.7299 27.9578 10.7299 21.873 14.4626 18.133C16.2648 16.329 18.6719 15.3335 21.2368 15.3335C23.8016 15.3335 26.2087 16.329 28.0109 18.133L30.0001 20.1258L31.9874 18.1348C33.7914 16.329 36.1986 15.3335 38.7634 15.3335C41.3282 15.3335 43.7354 16.329 45.5376 18.133C49.2702 21.873 49.2702 27.9578 45.5394 31.6978L31.2981 45.963C30.9534 46.3077 30.4877 46.5002 30.0001 46.5002Z" fill="#231F20"/>
<mask id="mask0" style="mask-type:alpha" maskUnits="userSpaceOnUse" x="11" y="15" width="38" height="32">
<path fill-rule="evenodd" clip-rule="evenodd" d="M30.0001 46.5002C29.5124 46.5002 29.0467 46.3077 28.7021 45.9612L14.4626 31.6978C10.7299 27.9578 10.7299 21.873 14.4626 18.133C16.2648 16.329 18.6719 15.3335 21.2368 15.3335C23.8016 15.3335 26.2087 16.329 28.0109 18.133L30.0001 20.1258L31.9874 18.1348C33.7914 16.329 36.1986 15.3335 38.7634 15.3335C41.3282 15.3335 43.7354 16.329 45.5376 18.133C49.2702 21.873 49.2702 27.9578 45.5394 31.6978L31.2981 45.963C30.9534 46.3077 30.4877 46.5002 30.0001 46.5002Z" fill="white"/>
</mask>
<g mask="url(#mask0)">
<rect x="8" y="8" width="44" height="44" fill="white"/>
</g>
</svg>
