<svg width="42" height="40" viewBox="0 0 42 40" fill="none" xmlns="http://www.w3.org/2000/svg">
<path fill-rule="evenodd" clip-rule="evenodd" d="M24.5 11.6667C24.5 9.82833 22.9302 8.33333 21 8.33333C19.0697 8.33333 17.5 9.82833 17.5 11.6667C17.5 13.505 19.0697 15 21 15C22.9302 15 24.5 13.505 24.5 11.6667ZM28 11.6667C28 15.3433 24.8605 18.3333 21 18.3333C17.1395 18.3333 14 15.3433 14 11.6667C14 7.99 17.1395 5 21 5C24.8605 5 28 7.99 28 11.6667ZM8.75 33.3333C8.75 26.9 14.2468 21.6667 21 21.6667C27.7533 21.6667 33.25 26.9 33.25 33.3333C33.25 34.2533 32.4678 35 31.5 35C30.5323 35 29.75 34.2533 29.75 33.3333C29.75 28.7383 25.8248 25 21 25C16.1753 25 12.25 28.7383 12.25 33.3333C12.25 34.2533 11.4678 35 10.5 35C9.53225 35 8.75 34.2533 8.75 33.3333Z" fill="#231F20"/>
<mask id="mask0" style="mask-type:alpha" maskUnits="userSpaceOnUse" x="8" y="5" width="26" height="30">
<path fill-rule="evenodd" clip-rule="evenodd" d="M24.5 11.6667C24.5 9.82833 22.9302 8.33333 21 8.33333C19.0697 8.33333 17.5 9.82833 17.5 11.6667C17.5 13.505 19.0697 15 21 15C22.9302 15 24.5 13.505 24.5 11.6667ZM28 11.6667C28 15.3433 24.8605 18.3333 21 18.3333C17.1395 18.3333 14 15.3433 14 11.6667C14 7.99 17.1395 5 21 5C24.8605 5 28 7.99 28 11.6667ZM8.75 33.3333C8.75 26.9 14.2468 21.6667 21 21.6667C27.7533 21.6667 33.25 26.9 33.25 33.3333C33.25 34.2533 32.4678 35 31.5 35C30.5323 35 29.75 34.2533 29.75 33.3333C29.75 28.7383 25.8248 25 21 25C16.1753 25 12.25 28.7383 12.25 33.3333C12.25 34.2533 11.4678 35 10.5 35C9.53225 35 8.75 34.2533 8.75 33.3333Z" fill="white"/>
</mask>
<g mask="url(#mask0)">
<rect width="42" height="40" fill="white"/>
</g>
</svg>
