<svg width="26" height="21" viewBox="0 0 26 21" fill="none" xmlns="http://www.w3.org/2000/svg">
<path d="M1 19.4615V13C1.00289 12.0216 1.39283 11.0842 2.08465 10.3923C2.77646 9.70052 3.71394 9.31058 4.69231 9.30769H21.3077C22.2861 9.31058 23.2235 9.70052 23.9154 10.3923C24.6072 11.0842 24.9971 12.0216 25 13V19.4615M20.3846 9.30769H3.76923V3.30769C3.77106 2.69622 4.01477 2.11031 4.44716 1.67792C4.87954 1.24554 5.46545 1.00183 6.07692 1H19.9231C20.5346 1.00183 21.1205 1.24554 21.5528 1.67792C21.9852 2.11031 22.2289 2.69622 22.2308 3.30769V9.30769H20.3846Z" stroke="white" stroke-width="2" stroke-linecap="round" stroke-linejoin="round"/>
<path d="M13 9.30781V8.38473C13.0014 7.89552 13.1963 7.42674 13.5422 7.08081C13.8882 6.73489 14.3569 6.53994 14.8462 6.53857H19.4615C19.9507 6.53994 20.4195 6.73489 20.7655 7.08081C21.1114 7.42674 21.3063 7.89552 21.3077 8.38473V9.30781M1 19.4617V19.0001C1.00107 18.6332 1.14729 18.2817 1.40672 18.0222C1.66616 17.7628 2.01772 17.6166 2.38462 17.6155H23.6154C23.9823 17.6166 24.3338 17.7628 24.5933 18.0222C24.8527 18.2817 24.9989 18.6332 25 19.0001V19.4617H1ZM4.69231 9.30781V8.38473C4.69368 7.89552 4.88862 7.42674 5.23455 7.08081C5.58047 6.73489 6.04925 6.53994 6.53846 6.53857H11.1538C11.6431 6.53994 12.1118 6.73489 12.4578 7.08081C12.8037 7.42674 12.9986 7.89552 13 8.38473V9.30781H4.69231Z" stroke="white" stroke-width="2" stroke-linecap="round" stroke-linejoin="round"/>
</svg>
